<svg width="41" height="41" viewBox="0 0 41 41" fill="none" xmlns="http://www.w3.org/2000/svg">
<path d="M22.2737 11.4503L23.5153 10.9403C24.5237 10.5403 25.827 10.132 27.3653 10.3903C30.517 10.9203 32.6903 12.622 33.9853 14.8787C34.4853 15.7487 34.082 16.8953 33.1487 17.2603C32.3491 17.5731 31.6656 18.1252 31.1916 18.8411C30.7177 19.5569 30.4763 20.4017 30.5006 21.26C30.5248 22.1182 30.8135 22.948 31.3272 23.636C31.8408 24.324 32.5544 24.8365 33.3703 25.1037C34.2337 25.387 34.7203 26.3453 34.437 27.2087C33.7003 29.4453 32.6403 31.5103 31.3853 33.177C30.1453 34.8237 28.632 36.1903 26.947 36.8587C25.847 37.292 24.667 37.1303 23.5387 36.8503L22.8687 36.672L21.8737 36.3837C21.422 36.252 20.957 36.1387 20.5003 36.1387C20.042 36.1387 19.5787 36.252 19.127 36.3837L18.132 36.672L17.462 36.8503C16.3337 37.1303 15.152 37.2937 14.0537 36.8587C11.932 36.0187 10.0603 34.0587 8.64534 31.747C7.11534 29.2005 6.10479 26.3761 5.67201 23.437C5.29367 20.847 5.49867 17.9387 6.69701 15.4787C7.93034 12.9437 10.1903 10.9703 13.6353 10.3903C15.0353 10.1553 16.2387 10.4703 17.202 10.832L17.7537 11.0487L18.727 11.4503C19.3937 11.712 19.9187 11.8653 20.5003 11.8653C21.0803 11.8653 21.607 11.712 22.2737 11.4503ZM20.1137 4.922C21.7403 3.29366 24.2387 3.15366 24.827 3.74366C25.417 4.332 25.277 6.83033 23.6487 8.457C22.022 10.0837 19.5237 10.2237 18.9353 9.63533C18.3453 9.047 18.4853 6.54866 20.1137 4.922Z" fill="black"/>
</svg>
