<svg width="41" height="41" viewBox="0 0 41 41" fill="none" xmlns="http://www.w3.org/2000/svg">
<path d="M36.846 17.046H35.5035V16.9769H20.5035V23.6435H29.9227C28.5485 27.5244 24.856 30.3102 20.5035 30.3102C14.9811 30.3102 10.5036 25.8327 10.5036 20.3102C10.5036 14.7877 14.9811 10.3102 20.5035 10.3102C23.0527 10.3102 25.3719 11.2719 27.1377 12.8427L31.8518 8.12855C28.8752 5.35439 24.8935 3.64355 20.5035 3.64355C11.2994 3.64355 3.83691 11.106 3.83691 20.3102C3.83691 29.5144 11.2994 36.9769 20.5035 36.9769C29.7077 36.9769 37.1702 29.5144 37.1702 20.3102C37.1702 19.1927 37.0552 18.1019 36.846 17.046Z" fill="black"/>
<path d="M5.75879 12.5527L11.2346 16.5685C12.7163 12.9002 16.3046 10.3102 20.5038 10.3102C23.0529 10.3102 25.3721 11.2719 27.1379 12.8427L31.8521 8.12855C28.8754 5.35439 24.8938 3.64355 20.5038 3.64355C14.1021 3.64355 8.55045 7.25772 5.75879 12.5527Z" fill="black"/>
<path d="M20.5045 36.97C24.8095 36.97 28.7211 35.3225 31.6786 32.6433L26.5203 28.2783C24.7908 29.5936 22.6774 30.305 20.5045 30.3033C16.1695 30.3033 12.4887 27.5391 11.102 23.6816L5.66699 27.8691C8.42532 33.2666 14.027 36.97 20.5045 36.97Z" fill="black"/>
<path d="M36.8425 17.0457H35.5V16.9766H20.5V23.6432H29.9191C29.2618 25.4902 28.0778 27.1042 26.5133 28.2857L26.5158 28.284L31.6741 32.649C31.3091 32.9807 37.1666 28.6432 37.1666 20.3099C37.1666 19.1924 37.0516 18.1016 36.8425 17.0457Z" fill="black"/>
</svg>
