<svg width="31" height="31" viewBox="0 0 31 31" fill="none" xmlns="http://www.w3.org/2000/svg">
<path d="M15.5196 30.627C17.3741 30.627 18.9665 29.5053 19.6554 27.9034C19.8989 27.3372 20.7033 27.004 21.2759 27.2322C22.8959 27.8778 24.815 27.5449 26.1263 26.2336C27.4374 24.9223 27.7703 23.0032 27.1248 21.3834C26.8967 20.8107 27.2298 20.0062 27.7961 19.7628C29.3979 19.0738 30.5196 17.4814 30.5196 15.627C30.5196 13.7725 29.3979 12.1802 27.7961 11.4912C27.2298 11.2476 26.8967 10.4432 27.1248 9.87064C27.7704 8.25076 27.4376 6.33162 26.1263 5.02036C24.815 3.70911 22.8959 3.37624 21.276 4.02177C20.7033 4.24996 19.8989 3.91675 19.6554 3.3505C18.9665 1.74862 17.3741 0.626953 15.5196 0.626953C13.6652 0.626953 12.0728 1.74861 11.3839 3.35049C11.1403 3.91672 10.3359 4.24992 9.76331 4.02174C8.14343 3.37621 6.22429 3.70906 4.91303 5.02032C3.60178 6.33157 3.26891 8.25072 3.91444 9.8706C4.14263 10.4432 3.80942 11.2476 3.24317 11.4912C1.64129 12.1801 0.519623 13.7725 0.519623 15.627C0.519623 17.4814 1.64128 19.0738 3.24316 19.7628C3.80939 20.0062 4.14259 20.8107 3.91441 21.3832C3.26888 23.0032 3.60173 24.9223 4.91299 26.2336C6.22424 27.5448 8.14339 27.8776 9.76327 27.2322C10.3359 27.004 11.1403 27.3372 11.3839 27.9034C12.0728 29.5053 13.6652 30.627 15.5196 30.627Z" fill="#299AE6"/>
<path d="M9.51962 16.377L13.2696 20.127L21.5196 11.877" stroke="white" stroke-width="2.2" stroke-linecap="round"/>
</svg>
